<svg class="icon" viewBox="0 0 1024 1024" xmlns="http://www.w3.org/2000/svg" width="200" height="200"><defs><style/></defs><path d="M347.2 511.872v-.008c0-9.137 3.83-17.38 9.97-23.21l265.614-251.277c5.72-5.415 13.464-8.743 21.984-8.744 17.678 0 32.008 14.33 32.008 32.008 0 9.158-3.845 17.417-10.01 23.25L425.665 511.937 666.752 740.16c6.165 5.855 10 14.113 10 23.266 0 8.516-3.32 16.256-8.735 21.998-12.145 12.784-32.434 13.36-45.233 1.264l-265.6-251.52c-6.155-5.844-9.984-14.086-9.984-23.223v-.076z"/></svg>
